<svg width="366" height="327" viewBox="0 0 366 327" fill="none" xmlns="http://www.w3.org/2000/svg">
<path d="M148.304 214.233C179.091 239.223 182.485 268.094 185.152 281.196C190.488 250.626 200.149 228.096 230.245 207.925C283.819 172.017 258.608 104.569 254.002 100.687C259.093 181.237 185.152 185.604 185.152 261.301C181.276 182.692 105.398 156.004 153.152 59.9269C92.0653 106.753 107.823 184.148 148.304 214.233Z" fill="white"/>
<path d="M230.245 153.578C194.366 203.558 190.003 203.8 186.124 237.282C175.458 147.998 246.729 111.12 210.851 23.0488C261.759 73.9989 242.608 129.801 230.245 153.578Z" fill="white"/>
<path d="M203.336 82.4906C201.752 145.572 169.64 147.513 178.609 200.404C148.355 151.686 149.276 110.877 152.428 103.356C153.152 82.4906 188.064 28.1439 185.155 0C202.803 38.8191 204.629 71.1684 203.336 82.4906Z" fill="white"/>
<path d="M29.0514 265.173L22.6299 256.386C147.816 227.725 181.817 270.581 183.168 295.591C192.902 233.403 294.25 243.543 343.707 256.386L337.285 265.849L296.728 255.034L338.975 269.905C333.568 276.664 332.441 287.592 332.554 292.211H331.202C248.398 292.211 219.332 285.452 202.771 300.66C199.053 302.35 197.363 318.573 183.168 319.249C172.028 319.78 168.635 308.096 165.594 302.35C162.079 295.591 149.709 292.774 143.963 292.211H34.459C34.9998 283.018 30.4033 272.834 28.0375 268.891L68.5946 254.696L29.0514 265.173Z" fill="white" stroke="white" stroke-width="0.1"/>
<path d="M1 304.014V295.733C65.8914 299.789 148.357 284.918 164.58 304.014C170.383 310.845 166.946 319.054 182.831 321.758C194.026 323.663 199.955 309.928 201.42 304.014C211.153 295.227 223.05 293.48 227.782 293.706L365 296.071V304.014H221.698C204.461 307.901 208.517 327.841 181.141 326.151C161.201 327.165 154.779 304.014 143.288 304.014H1Z" fill="white" stroke="white" stroke-width="0.1"/>
</svg>
