<svg width="20" height="18" viewBox="0 0 20 18" fill="none" xmlns="http://www.w3.org/2000/svg">
<path d="M18.4211 14.1164C18.8265 14.1166 19.2164 14.2654 19.5099 14.5322C19.8033 14.7989 19.9779 15.163 19.9974 15.549C20.0169 15.9351 19.8798 16.3135 19.6146 16.6058C19.3493 16.8982 18.9762 17.082 18.5726 17.1193L18.4211 17.1263H1.57895C1.17346 17.1262 0.783584 16.9773 0.490119 16.7106C0.196654 16.4438 0.0220926 16.0797 0.00260604 15.6937C-0.0168805 15.3076 0.120202 14.9292 0.385448 14.6369C0.650694 14.3446 1.02377 14.1607 1.42737 14.1234L1.57895 14.1164H18.4211ZM18.4211 7.0931C18.8398 7.0931 19.2414 7.25166 19.5375 7.5339C19.8336 7.81614 20 8.19894 20 8.59808C20 8.99723 19.8336 9.38003 19.5375 9.66227C19.2414 9.94451 18.8398 10.1031 18.4211 10.1031H1.57895C1.16018 10.1031 0.758573 9.94451 0.462463 9.66227C0.166353 9.38003 0 8.99723 0 8.59808C0 8.19894 0.166353 7.81614 0.462463 7.5339C0.758573 7.25166 1.16018 7.0931 1.57895 7.0931H18.4211ZM18.4211 0.0698242C18.8398 0.0698242 19.2414 0.228385 19.5375 0.510625C19.8336 0.792865 20 1.17566 20 1.57481C20 1.97396 19.8336 2.35676 19.5375 2.639C19.2414 2.92124 18.8398 3.0798 18.4211 3.0798H1.57895C1.16018 3.0798 0.758573 2.92124 0.462463 2.639C0.166353 2.35676 0 1.97396 0 1.57481C0 1.17566 0.166353 0.792865 0.462463 0.510625C0.758573 0.228385 1.16018 0.0698242 1.57895 0.0698242H18.4211Z" fill="white"/>
</svg>
