<svg width="29" height="62" viewBox="0 0 29 62" fill="none" xmlns="http://www.w3.org/2000/svg">
<path d="M13.84 1.824C12.944 1.824 12.304 2.176 11.92 2.88C11.536 3.584 11.28 4.544 11.152 5.76C11.024 7.552 10.576 9.12 9.808 10.464C9.104 11.744 7.728 12.384 5.68 12.384C4.016 12.384 2.8 11.936 2.032 11.04C1.264 10.144 0.88 9.088 0.88 7.872C0.88 5.632 2.096 3.776 4.528 2.304C7.024 0.768 10.128 0 13.84 0C18 0 21.488 0.991999 24.304 2.976C27.184 4.96 28.624 7.776 28.624 11.424C28.624 13.856 28.016 15.872 26.8 17.472C25.584 19.008 23.792 20.736 21.424 22.656L19.312 24.384C17.328 26.112 15.888 27.936 14.992 29.856C14.096 31.712 13.648 33.824 13.648 36.192C13.648 37.152 13.808 38.848 14.128 41.28C14.256 41.472 14.064 41.632 13.552 41.76C13.04 41.888 12.72 41.856 12.592 41.664C11.824 39.936 11.216 37.952 10.768 35.712C10.32 33.472 10.096 31.584 10.096 30.048C10.096 28.128 10.384 26.56 10.96 25.344C11.6 24.064 12.528 22.656 13.744 21.12C15.088 19.456 16.112 17.856 16.816 16.32C17.584 14.72 17.968 12.672 17.968 10.176C17.968 7.744 17.584 5.76 16.816 4.224C16.112 2.624 15.12 1.824 13.84 1.824ZM12.688 61.056C10.896 61.056 9.456 60.544 8.368 59.52C7.344 58.432 6.832 56.992 6.832 55.2C6.832 53.536 7.344 52.192 8.368 51.168C9.456 50.144 10.896 49.632 12.688 49.632C14.48 49.632 15.856 50.144 16.816 51.168C17.84 52.128 18.352 53.472 18.352 55.2C18.352 57.056 17.84 58.496 16.816 59.52C15.856 60.544 14.48 61.056 12.688 61.056Z" fill="white"/>
</svg>
